<svg width="231" height="191" viewBox="0 0 231 191" fill="none" xmlns="http://www.w3.org/2000/svg">
<g clip-path="url(#clip0_3_10)">
<path d="M109.953 134.129C110.335 135.225 109.708 136.115 108.543 136.115H72.7974C70.4684 136.115 67.9453 134.34 67.1576 132.148L21.2455 4.47534C20.4006 2.24338 21.8505 0.656463 24.014 0.913338L60.5017 4.42967C62.8135 4.6523 65.3195 6.61596 66.0844 8.80796L109.953 134.129ZM154.992 0.913338L118.504 4.42967C116.186 4.6523 113.686 6.61596 112.921 8.81367L91.0755 71.5483L112.071 131.537L157.766 4.46963C158.548 2.28334 157.309 0.690713 154.997 0.913338" fill="#111111"/>
</g>
<path d="M168.5 135.198L160.948 128.323C134.125 104 116.417 87.9063 116.417 68.2708C116.417 52.1771 129.021 39.625 145.062 39.625C154.125 39.625 162.823 43.8437 168.5 50.4583C174.177 43.8437 182.875 39.625 191.937 39.625C207.979 39.625 220.583 52.1771 220.583 68.2708C220.583 87.9063 202.875 104 176.052 128.323L168.5 135.198Z" fill="#FF0000"/>
<g filter="url(#filter0_d_3_10)">
<path d="M17.8195 175L8.0275 152.6H12.5395L21.2755 172.856H18.6835L27.5155 152.6H31.6755L21.9155 175H17.8195ZM33.8428 175V157.912H37.8428V175H33.8428ZM35.8588 155.096C35.1121 155.096 34.4934 154.861 34.0028 154.392C33.5334 153.923 33.2988 153.357 33.2988 152.696C33.2988 152.013 33.5334 151.448 34.0028 151C34.4934 150.531 35.1121 150.296 35.8588 150.296C36.6054 150.296 37.2134 150.52 37.6828 150.968C38.1734 151.395 38.4188 151.939 38.4188 152.6C38.4188 153.304 38.1841 153.901 37.7148 154.392C37.2454 154.861 36.6268 155.096 35.8588 155.096ZM52.7888 157.72C54.1541 157.72 55.3701 157.987 56.4368 158.52C57.5248 159.053 58.3781 159.875 58.9968 160.984C59.6154 162.072 59.9248 163.48 59.9248 165.208V175H55.9248V165.72C55.9248 164.205 55.5621 163.075 54.8368 162.328C54.1328 161.581 53.1408 161.208 51.8608 161.208C50.9221 161.208 50.0901 161.4 49.3648 161.784C48.6394 162.168 48.0741 162.744 47.6688 163.512C47.2848 164.259 47.0928 165.208 47.0928 166.36V175H43.0928V157.912H46.9008V162.52L46.2288 161.112C46.8261 160.024 47.6901 159.192 48.8208 158.616C49.9728 158.019 51.2954 157.72 52.7888 157.72ZM72.8703 175.224C71.0783 175.224 69.4783 174.851 68.0703 174.104C66.6836 173.336 65.5956 172.291 64.8063 170.968C64.0169 169.645 63.6223 168.141 63.6223 166.456C63.6223 164.749 64.0169 163.245 64.8063 161.944C65.5956 160.621 66.6836 159.587 68.0703 158.84C69.4783 158.093 71.0783 157.72 72.8703 157.72C74.5343 157.72 75.9956 158.061 77.2543 158.744C78.5343 159.405 79.5049 160.387 80.1663 161.688L77.0943 163.48C76.5823 162.669 75.9529 162.072 75.2063 161.688C74.4809 161.304 73.6916 161.112 72.8383 161.112C71.8569 161.112 70.9716 161.325 70.1823 161.752C69.3929 162.179 68.7743 162.797 68.3263 163.608C67.8783 164.397 67.6543 165.347 67.6543 166.456C67.6543 167.565 67.8783 168.525 68.3263 169.336C68.7743 170.125 69.3929 170.733 70.1823 171.16C70.9716 171.587 71.8569 171.8 72.8383 171.8C73.6916 171.8 74.4809 171.608 75.2063 171.224C75.9529 170.84 76.5823 170.243 77.0943 169.432L80.1663 171.224C79.5049 172.504 78.5343 173.496 77.2543 174.2C75.9956 174.883 74.5343 175.224 72.8703 175.224ZM90.856 175.224C89.4053 175.224 88.1253 174.957 87.016 174.424C85.9067 173.869 85.0427 173.037 84.424 171.928C83.8053 170.797 83.496 169.379 83.496 167.672V157.912H87.496V167.128C87.496 168.664 87.8373 169.816 88.52 170.584C89.224 171.331 90.216 171.704 91.496 171.704C92.4347 171.704 93.2453 171.512 93.928 171.128C94.632 170.744 95.176 170.168 95.56 169.4C95.9653 168.632 96.168 167.683 96.168 166.552V157.912H100.168V175H96.36V170.392L97.032 171.8C96.456 172.909 95.6133 173.763 94.504 174.36C93.3947 174.936 92.1787 175.224 90.856 175.224ZM105.405 175V151.256H109.405V175H105.405ZM125.183 175V171.544L124.959 170.808V164.76C124.959 163.587 124.607 162.68 123.903 162.04C123.199 161.379 122.133 161.048 120.703 161.048C119.743 161.048 118.794 161.197 117.855 161.496C116.938 161.795 116.159 162.211 115.519 162.744L113.951 159.832C114.869 159.128 115.957 158.605 117.215 158.264C118.495 157.901 119.818 157.72 121.183 157.72C123.658 157.72 125.567 158.317 126.911 159.512C128.277 160.685 128.959 162.509 128.959 164.984V175H125.183ZM119.807 175.224C118.527 175.224 117.407 175.011 116.447 174.584C115.487 174.136 114.741 173.528 114.207 172.76C113.695 171.971 113.439 171.085 113.439 170.104C113.439 169.144 113.663 168.28 114.111 167.512C114.581 166.744 115.338 166.136 116.383 165.688C117.429 165.24 118.815 165.016 120.543 165.016H125.503V167.672H120.831C119.466 167.672 118.549 167.896 118.079 168.344C117.61 168.771 117.375 169.304 117.375 169.944C117.375 170.669 117.663 171.245 118.239 171.672C118.815 172.099 119.615 172.312 120.639 172.312C121.621 172.312 122.495 172.088 123.263 171.64C124.053 171.192 124.618 170.531 124.959 169.656L125.631 172.056C125.247 173.059 124.554 173.837 123.551 174.392C122.57 174.947 121.322 175.224 119.807 175.224ZM140.152 175L150.233 152.6H154.329L164.441 175H160.089L151.417 154.808H153.081L144.441 175H140.152ZM144.793 169.816L145.913 166.552H158.009L159.128 169.816H144.793ZM174.589 175.224C172.797 175.224 171.197 174.851 169.789 174.104C168.402 173.336 167.314 172.291 166.525 170.968C165.736 169.645 165.341 168.141 165.341 166.456C165.341 164.749 165.736 163.245 166.525 161.944C167.314 160.621 168.402 159.587 169.789 158.84C171.197 158.093 172.797 157.72 174.589 157.72C176.253 157.72 177.714 158.061 178.973 158.744C180.253 159.405 181.224 160.387 181.885 161.688L178.813 163.48C178.301 162.669 177.672 162.072 176.925 161.688C176.2 161.304 175.41 161.112 174.557 161.112C173.576 161.112 172.69 161.325 171.901 161.752C171.112 162.179 170.493 162.797 170.045 163.608C169.597 164.397 169.373 165.347 169.373 166.456C169.373 167.565 169.597 168.525 170.045 169.336C170.493 170.125 171.112 170.733 171.901 171.16C172.69 171.587 173.576 171.8 174.557 171.8C175.41 171.8 176.2 171.608 176.925 171.224C177.672 170.84 178.301 170.243 178.813 169.432L181.885 171.224C181.224 172.504 180.253 173.496 178.973 174.2C177.714 174.883 176.253 175.224 174.589 175.224ZM172.925 182.296C172.349 182.296 171.816 182.232 171.325 182.104C170.834 181.997 170.386 181.837 169.981 181.624L170.717 179.736C171.058 179.907 171.4 180.035 171.741 180.12C172.104 180.205 172.488 180.248 172.893 180.248C173.512 180.248 173.949 180.141 174.205 179.928C174.461 179.715 174.589 179.437 174.589 179.096C174.589 178.776 174.45 178.52 174.173 178.328C173.917 178.136 173.49 178.04 172.893 178.04H171.901L172.765 174.776H174.941L174.493 176.568C175.432 176.675 176.125 176.973 176.573 177.464C177.042 177.976 177.277 178.573 177.277 179.256C177.277 180.195 176.882 180.931 176.093 181.464C175.304 182.019 174.248 182.296 172.925 182.296ZM195.871 175V171.544L195.647 170.808V164.76C195.647 163.587 195.295 162.68 194.591 162.04C193.887 161.379 192.82 161.048 191.391 161.048C190.431 161.048 189.481 161.197 188.543 161.496C187.625 161.795 186.847 162.211 186.207 162.744L184.639 159.832C185.556 159.128 186.644 158.605 187.903 158.264C189.183 157.901 190.505 157.72 191.871 157.72C194.345 157.72 196.255 158.317 197.599 159.512C198.964 160.685 199.647 162.509 199.647 164.984V175H195.871ZM190.495 175.224C189.215 175.224 188.095 175.011 187.135 174.584C186.175 174.136 185.428 173.528 184.895 172.76C184.383 171.971 184.127 171.085 184.127 170.104C184.127 169.144 184.351 168.28 184.799 167.512C185.268 166.744 186.025 166.136 187.071 165.688C188.116 165.24 189.503 165.016 191.231 165.016H196.191V167.672H191.519C190.153 167.672 189.236 167.896 188.767 168.344C188.297 168.771 188.063 169.304 188.063 169.944C188.063 170.669 188.351 171.245 188.927 171.672C189.503 172.099 190.303 172.312 191.327 172.312C192.308 172.312 193.183 172.088 193.951 171.64C194.74 171.192 195.305 170.531 195.647 169.656L196.319 172.056C195.935 173.059 195.241 173.837 194.239 174.392C193.257 174.947 192.009 175.224 190.495 175.224ZM194.527 155.576C194.015 155.576 193.545 155.48 193.119 155.288C192.713 155.075 192.34 154.829 191.999 154.552C191.679 154.253 191.369 153.997 191.071 153.784C190.772 153.571 190.473 153.464 190.175 153.464C189.727 153.464 189.364 153.635 189.087 153.976C188.809 154.317 188.649 154.787 188.607 155.384H186.463C186.505 154.061 186.825 153.016 187.423 152.248C188.041 151.48 188.873 151.096 189.919 151.096C190.431 151.096 190.9 151.203 191.327 151.416C191.753 151.629 192.127 151.875 192.447 152.152C192.788 152.429 193.108 152.675 193.407 152.888C193.705 153.101 193.993 153.208 194.271 153.208C194.719 153.208 195.081 153.048 195.359 152.728C195.657 152.408 195.817 151.96 195.839 151.384H197.983C197.961 152.621 197.641 153.635 197.023 154.424C196.404 155.192 195.572 155.576 194.527 155.576ZM212.492 175.224C210.742 175.224 209.185 174.851 207.82 174.104C206.454 173.336 205.377 172.291 204.588 170.968C203.798 169.645 203.404 168.141 203.404 166.456C203.404 164.749 203.798 163.245 204.588 161.944C205.377 160.621 206.454 159.587 207.82 158.84C209.185 158.093 210.742 157.72 212.492 157.72C214.262 157.72 215.83 158.093 217.196 158.84C218.582 159.587 219.66 160.611 220.428 161.912C221.217 163.213 221.612 164.728 221.612 166.456C221.612 168.141 221.217 169.645 220.428 170.968C219.66 172.291 218.582 173.336 217.196 174.104C215.83 174.851 214.262 175.224 212.492 175.224ZM212.492 171.8C213.473 171.8 214.348 171.587 215.116 171.16C215.884 170.733 216.481 170.115 216.908 169.304C217.356 168.493 217.58 167.544 217.58 166.456C217.58 165.347 217.356 164.397 216.908 163.608C216.481 162.797 215.884 162.179 215.116 161.752C214.348 161.325 213.484 161.112 212.524 161.112C211.542 161.112 210.668 161.325 209.9 161.752C209.153 162.179 208.556 162.797 208.108 163.608C207.66 164.397 207.436 165.347 207.436 166.456C207.436 167.544 207.66 168.493 208.108 169.304C208.556 170.115 209.153 170.733 209.9 171.16C210.668 171.587 211.532 171.8 212.492 171.8Z" fill="black"/>
</g>
<defs>
<filter id="filter0_d_3_10" x="4.0275" y="150.296" width="221.584" height="40" filterUnits="userSpaceOnUse" color-interpolation-filters="sRGB">
<feFlood flood-opacity="0" result="BackgroundImageFix"/>
<feColorMatrix in="SourceAlpha" type="matrix" values="0 0 0 0 0 0 0 0 0 0 0 0 0 0 0 0 0 0 127 0" result="hardAlpha"/>
<feOffset dy="4"/>
<feGaussianBlur stdDeviation="2"/>
<feComposite in2="hardAlpha" operator="out"/>
<feColorMatrix type="matrix" values="0 0 0 0 0 0 0 0 0 0 0 0 0 0 0 0 0 0 0.25 0"/>
<feBlend mode="normal" in2="BackgroundImageFix" result="effect1_dropShadow_3_10"/>
<feBlend mode="normal" in="SourceGraphic" in2="effect1_dropShadow_3_10" result="shape"/>
</filter>
<clipPath id="clip0_3_10">
<rect width="137" height="137" fill="white" transform="translate(21)"/>
</clipPath>
</defs>
</svg>
